# xmcd
#
# Track frame offsets:
# 150
# 12655
# 27444
# 42743
# 56323
# 69488
# 81142
# 92218
# 101892
# 117356
# 129448
# 141763
# 154533
# 168174
# 181157
# 196133
# 206662
# 224521
#
# Disc length: 3215 seconds
#
#
# Revision: 3
# Processed by: cddbd v1.5.1PL2 Copyright (c) Steve Scherf et al.
# Submitted via: FreeRIP 2.945 
#
DISCID=010c8d12
DTITLE=Various Artist - Essential Country Classics
DYEAR=2003
DGENRE=Country
TTITLE0=69 Nilsson - Everybody's Talkin'
TTITLE1=71 Olivia Newton John - Banks Of The Ohio
TTITLE2=73 Don Williams - I Recall A Gypsy Woman
TTITLE3=71 Faron Young - It's Four In The Morning
TTITLE4=52 Hank Williams - Jambalaya (On The Bayou)
TTITLE5=67 Charlie Rich - I'm So Lonesome I Could Cry
TTITLE6=65 Roger Miller - King Of The Road
TTITLE7=80 Waylon Jennings - Theme From "Dukes Of Hazzard" (Good Ol' Boys)
TTITLE8=79 Hoyt Axton - Della And The Dealer
TTITLE9=81 Oak Ridge Boys - Elvira
TTITLE10=56 Johnny Cash - I Walk The Line
TTITLE11=75 Freddy Fender - Wasted Days And Wasted Nights
TTITLE12=70 Loretta Lynne - Coal Miner's Daughter
TTITLE13=69 Bobby Gentry - I'll Never Fall In Love Again
TTITLE14=Kenny Rogers - Crazy
TTITLE15=81 Crystal Gayle - Crying In The Rain
TTITLE16=83 Lee Greenwood - The Wind Beneath My Wings
TTITLE17=78 Don McLean - Crying
EXTD=
EXTT0=
EXTT1=
EXTT2=
EXTT3=
EXTT4=
EXTT5=
EXTT6=
EXTT7=
EXTT8=
EXTT9=
EXTT10=
EXTT11=
EXTT12=
EXTT13=
EXTT14=
EXTT15=
EXTT16=
EXTT17=
PLAYORDER=
